<?xml version="1.0" standalone="no"?>
<!DOCTYPE svg PUBLIC "-//W3C//DTD SVG 20010904//EN"
 "http://www.w3.org/TR/2001/REC-SVG-20010904/DTD/svg10.dtd">
<svg version="1.0" xmlns="http://www.w3.org/2000/svg"
 width="783.000000pt" height="195.000000pt" viewBox="0 0 783.000000 195.000000"
 preserveAspectRatio="xMidYMid meet">

<g transform="translate(0.000000,195.000000) scale(0.100000,-0.100000)"
fill="white" stroke="none">
<path d="M5455 1755 c-95 -21 -170 -53 -250 -106 -219 -147 -337 -414 -321
-726 12 -238 89 -420 240 -561 126 -118 255 -170 466 -187 149 -13 294 40 402
144 33 32 61 53 63 47 2 -6 10 -42 17 -81 l14 -70 107 -3 107 -3 0 411 0 410
-320 0 -320 0 0 -120 0 -120 163 0 c90 0 166 -3 169 -6 9 -8 -20 -120 -42
-165 -49 -95 -146 -153 -278 -165 -214 -20 -377 101 -438 327 -24 88 -24 290
0 379 38 141 112 242 213 292 56 27 79 33 157 36 50 2 109 -1 132 -7 92 -25
178 -109 206 -203 l11 -38 159 0 c180 0 168 -7 142 93 -38 148 -149 286 -290
359 -137 72 -349 98 -509 63z"/>
<path d="M150 975 l0 -765 165 0 165 0 0 330 0 330 315 0 315 0 0 -330 0 -330
165 0 165 0 0 765 0 765 -165 0 -165 0 0 -295 0 -295 -315 0 -315 0 0 295 0
295 -165 0 -165 0 0 -765z"/>
<path d="M1720 1615 l0 -125 145 0 c169 0 155 -13 152 145 l-2 100 -148 3
-147 3 0 -126z"/>
<path d="M3100 1615 l0 -125 150 0 150 0 0 125 0 125 -150 0 -150 0 0 -125z"/>
<path d="M7005 1339 c-141 -12 -245 -59 -340 -154 -69 -69 -116 -157 -141
-261 -20 -84 -14 -292 10 -367 43 -133 146 -257 265 -316 159 -81 388 -79 556
3 128 63 215 166 262 311 22 68 26 98 26 200 0 186 -44 314 -145 421 -121 128
-282 181 -493 163z m150 -230 c60 -15 127 -75 154 -139 66 -152 45 -383 -45
-489 -42 -50 -95 -71 -184 -71 -121 0 -188 43 -239 150 -22 48 -26 71 -29 176
-7 205 39 309 158 363 50 23 119 27 185 10z"/>
<path d="M2780 1324 c-85 -31 -172 -106 -208 -180 -8 -19 -19 -34 -24 -34 -4
0 -8 47 -8 105 l0 106 -137 -3 -138 -3 -3 -552 -2 -553 149 0 150 0 3 318 3
317 26 56 c14 30 43 72 63 92 52 49 110 67 223 67 l94 0 -3 138 -3 137 -70 2
c-44 2 -87 -3 -115 -13z"/>
<path d="M4133 1322 c-62 -22 -110 -57 -160 -118 l-38 -45 -5 78 -5 78 -137 3
-138 3 0 -556 0 -555 144 0 144 0 5 342 c5 362 9 405 53 470 60 93 244 116
317 40 60 -63 62 -73 65 -480 l3 -372 150 0 151 0 -4 418 c-4 399 -5 420 -26
484 -32 95 -74 146 -156 188 -64 33 -73 34 -189 37 -99 3 -132 0 -174 -15z"/>
<path d="M1720 765 l0 -556 148 3 147 3 -2 535 c-1 294 -2 543 -3 553 0 15
-14 17 -145 17 l-145 0 0 -555z"/>
<path d="M3107 1314 c-4 -4 -7 -254 -7 -556 l0 -548 150 0 150 0 -2 553 -3
552 -141 3 c-77 1 -143 -1 -147 -4z"/>
</g>
</svg>
