<?xml version="1.0" standalone="no"?>
<!DOCTYPE svg PUBLIC "-//W3C//DTD SVG 20010904//EN"
 "http://www.w3.org/TR/2001/REC-SVG-20010904/DTD/svg10.dtd">
<svg version="1.0" xmlns="http://www.w3.org/2000/svg"
 width="375.000000pt" height="375.000000pt" viewBox="0 0 375.000000 375.000000"
 preserveAspectRatio="xMidYMid meet">
<metadata>
Created by potrace 1.14, written by Peter Selinger 2001-2017
</metadata>
<g transform="translate(0.000000,375.000000) scale(0.100000,-0.100000)"
fill="#000000" stroke="none">
<path d="M1853 3539 c-54 -10 -175 -54 -211 -76 -85 -53 -142 -115 -136 -150
1 -7 2 -19 3 -27 1 -13 50 -68 87 -96 76 -59 261 -115 394 -119 88 -3 209 19
265 46 91 46 155 128 155 201 0 80 -89 171 -205 209 -55 18 -278 26 -352 12z"/>
<path d="M2426 3475 c74 -98 72 -226 -6 -327 -81 -106 -261 -201 -445 -235
-51 -10 -254 -10 -320 -1 -165 22 -316 121 -386 250 -30 57 -33 71 -34 149 l0
86 -45 -20 c-136 -60 -277 -172 -318 -252 -24 -49 -24 -124 2 -174 16 -30 101
-120 137 -146 161 -113 410 -204 669 -245 41 -6 86 -14 100 -16 48 -10 406
-13 475 -4 95 11 158 21 165 25 3 2 23 6 45 9 235 37 497 194 568 339 29 60
40 141 26 191 -17 61 -205 204 -385 294 -71 35 -255 112 -269 112 -4 0 6 -16
21 -35z"/>
<path d="M3139 3048 c0 -2 -3 -16 -5 -33 -33 -234 -255 -419 -658 -550 -44
-14 -92 -28 -108 -30 -15 -3 -56 -12 -90 -20 -75 -17 -108 -23 -168 -31 -25
-3 -72 -9 -105 -13 -63 -9 -443 -7 -485 2 -14 3 -43 8 -65 11 -83 11 -232 44
-290 65 -33 12 -67 23 -77 25 -33 9 -155 71 -221 114 -129 83 -245 225 -272
334 l-7 28 -30 -43 c-71 -102 -120 -182 -157 -256 -33 -64 -39 -84 -32 -108
22 -76 93 -180 170 -248 19 -16 39 -35 45 -41 47 -46 233 -151 351 -198 348
-139 684 -198 1100 -191 121 2 234 6 250 8 17 3 59 8 95 12 158 17 376 70 552
136 192 71 344 164 460 280 87 88 113 129 103 168 -14 56 -129 280 -190 371
-56 83 -163 218 -166 208z"/>
<path d="M3502 2288 c-120 -173 -415 -357 -747 -463 -91 -29 -258 -70 -325
-80 -25 -3 -52 -8 -61 -11 -23 -6 -98 -17 -249 -33 -77 -9 -519 -7 -600 2
-335 39 -571 98 -806 201 -108 48 -123 56 -244 135 -76 50 -86 58 -153 124
-33 32 -61 56 -64 54 -14 -14 -32 -232 -29 -359 l2 -147 40 -48 c76 -93 131
-140 259 -220 56 -35 208 -107 303 -143 333 -125 727 -191 1152 -193 139 -1
361 9 404 18 12 2 49 7 84 10 34 3 86 10 115 16 29 5 66 12 82 14 17 3 42 8
57 11 15 3 30 6 33 6 4 0 117 30 160 42 65 18 197 61 220 71 17 8 60 27 96 43
87 39 191 100 266 157 54 40 62 51 68 88 4 23 9 51 11 62 20 103 22 355 4 467
-14 91 -41 218 -46 218 -1 0 -16 -19 -32 -42z"/>
<path d="M3469 1357 c-79 -60 -191 -120 -329 -179 -52 -22 -99 -41 -105 -43
-5 -1 -17 -5 -25 -8 -13 -5 -102 -33 -245 -77 -16 -5 -41 -11 -55 -14 -14 -3
-81 -16 -150 -30 -69 -13 -149 -27 -179 -31 -30 -4 -63 -8 -74 -11 -11 -2 -49
-6 -86 -9 -36 -3 -88 -8 -116 -11 -120 -14 -544 -7 -695 12 -225 27 -258 32
-400 66 -47 11 -94 22 -105 24 -85 17 -324 103 -427 154 l-59 29 5 -32 c3 -18
8 -50 11 -72 42 -269 662 -531 1350 -572 192 -11 492 -6 595 11 14 2 48 7 75
10 79 10 116 16 170 27 28 6 61 13 75 15 106 20 299 84 406 134 72 35 86 47
136 112 75 99 135 196 185 298 38 80 97 230 89 230 -2 0 -23 -15 -47 -33z"/>
<path d="M2853 537 c-51 -18 -98 -34 -105 -36 -102 -33 -428 -92 -573 -105
-33 -3 -89 -8 -125 -12 -78 -8 -401 -8 -485 0 -33 3 -89 8 -125 12 -146 13
-305 40 -415 71 -16 4 -17 3 -8 -7 30 -31 237 -131 350 -169 200 -67 360 -90
578 -86 88 2 169 5 180 8 11 3 40 8 65 12 254 42 529 159 729 311 53 41 51 41
-66 1z"/>
</g>
</svg>
